<svg width="1011" height="543" viewBox="0 0 1011 543" fill="none" xmlns="http://www.w3.org/2000/svg">
<path opacity="0.03" d="M294.913 3.60778C147.855 22.4458 23.4309 151.809 2.60362 308.377C-16.6757 453.229 72.9778 609.222 209.763 668.956C323.339 718.513 444.75 705.586 537.593 636.709C588.489 687.676 639.384 738.691 689.776 790.151C778.221 880.487 883.39 917.352 1008.08 901.382C1155.13 882.567 1279.57 753.192 1300.39 596.6C1319.68 451.76 1230.03 295.756 1093.25 236.045C979.669 186.488 858.259 199.392 765.404 268.28C714.508 217.325 663.613 166.299 613.221 114.826C538.109 38.1344 450.977 0 350.054 0C332.111 0 313.735 1.19868 294.913 3.60778ZM184.373 357.934C184.373 290.127 225.477 231.944 284.077 207.101C344.565 174.901 406.743 186.136 459.28 236.586C572.704 345.525 680.758 460.08 793.572 569.63C792.693 562.661 792.059 555.634 792.059 548.43C792.059 469.541 847.704 403.731 921.761 388.23C926.537 387.259 931.354 386.498 936.197 385.95C936.948 385.868 937.675 385.704 938.39 385.633C943.902 385.046 949.507 384.764 955.171 384.764H955.242C993.135 384.667 1029.86 397.891 1059.03 422.134C1077.63 437.477 1092.6 456.762 1102.87 478.601C1113.14 500.439 1118.45 524.288 1118.42 548.43L1118.41 548.465C1118.41 556.503 1117.64 564.307 1116.54 572.016C1116.29 573.673 1116.07 575.318 1115.79 576.951C1114.46 584.473 1112.74 591.817 1110.41 598.927C1110.11 599.867 1109.73 600.772 1109.39 601.724C1107.09 608.434 1104.35 614.986 1101.19 621.338C1100.75 622.207 1100.36 623.077 1099.93 623.923C1096.38 630.751 1092.34 637.273 1087.92 643.478C1087.38 644.23 1086.82 644.935 1086.28 645.676C1076.86 658.432 1065.64 669.752 1052.98 679.286L1051.85 680.108C1038.54 689.979 1023.79 697.747 1008.13 703.142H1008.12L1007.85 703.247C1006.43 703.741 1005.04 704.34 1003.58 704.775C948.041 727.585 891.845 714.588 843.729 668.392C730.14 559.3 621.923 444.58 508.932 334.889C509.988 342.446 510.738 350.096 510.738 357.934C510.738 448.329 437.679 521.624 347.544 521.624C257.421 521.624 184.373 448.329 184.373 357.934Z" fill="white"/>
</svg>
