<svg width="170" height="37" viewBox="0 0 170 37" fill="none" xmlns="http://www.w3.org/2000/svg">
<path opacity="0.7" d="M11.4314 0.138048C5.74124 0.874302 0.91597 5.93605 0.0965856 12.0562C-0.631756 17.7161 2.82787 23.8362 8.15387 26.1831C12.5694 28.1157 17.2581 27.6095 20.8999 24.9406C22.8573 26.9193 24.8602 28.944 26.8176 30.9687C30.2317 34.5119 34.3287 35.9384 39.1539 35.3402C44.8441 34.604 49.6694 29.5422 50.4887 23.4221C51.2171 17.7621 47.7575 11.642 42.4315 9.29521C38.0159 7.36255 33.3272 7.86872 29.6855 10.5376C27.7281 8.55896 25.7251 6.53426 23.7677 4.50956C20.8999 1.47251 17.4857 0 13.5709 0C12.8881 0 12.1597 0.0460159 11.4314 0.138048ZM7.1524 14.0349C7.1524 11.3659 8.74565 9.11115 11.0217 8.14482C13.3888 6.90239 15.8015 7.31653 17.8044 9.29521C22.22 13.5747 26.4079 18.0382 30.778 22.3177C30.7325 22.0416 30.7325 21.7655 30.7325 21.4894C30.7325 18.4064 32.872 15.8295 35.7853 15.2313C35.9674 15.1852 36.1495 15.1852 36.3316 15.1392C36.3771 15.1392 36.3771 15.1392 36.4226 15.1392C36.6502 15.1392 36.8323 15.0932 37.0599 15.0932C38.5166 15.0932 39.9733 15.5994 41.1113 16.5657C42.568 17.7621 43.4329 19.6028 43.4329 21.4894C43.4329 21.8115 43.3874 22.0876 43.3419 22.4097C43.3419 22.4558 43.3419 22.5478 43.2964 22.5938C43.2508 22.8699 43.1598 23.192 43.0688 23.4681C43.0688 23.5141 43.0232 23.5601 43.0232 23.5601C42.9322 23.8362 42.8411 24.0663 42.7046 24.3424C42.7046 24.3884 42.6591 24.3884 42.6591 24.4344C42.5225 24.7105 42.3859 24.9406 42.2039 25.2167C42.2039 25.2627 42.1583 25.2627 42.1583 25.3087C41.7942 25.8149 41.3389 26.2291 40.8837 26.6432L40.8382 26.6892C40.3375 27.0574 39.7457 27.3795 39.1539 27.6095C39.1084 27.6095 39.0629 27.6556 38.9718 27.6556C36.8323 28.5299 34.6473 28.0237 32.7809 26.2291C28.3654 21.9496 24.1774 17.486 19.8073 13.1605C19.8529 13.4366 19.8984 13.7588 19.8984 14.0809C19.8984 17.6241 17.0761 20.4771 13.5709 20.4771C9.97472 20.4311 7.1524 17.5321 7.1524 14.0349Z" fill="white"/>
<g opacity="0.7">
<path fill-rule="evenodd" clip-rule="evenodd" d="M89.2594 34.1207C89.9876 34.1207 90.3972 33.8426 90.3972 33.2863C90.3972 32.73 90.0331 32.4982 89.2594 32.4982H88.4857V34.1207H89.2594ZM89.1228 31.4783C89.8055 31.4783 90.0786 31.2002 90.0786 30.7366C90.0786 30.273 89.76 30.0876 89.1228 30.0876H88.4857V31.5247H89.1228V31.4783ZM87.1203 28.975H89.2139C90.4882 28.975 91.444 29.3459 91.444 30.5048C91.444 31.0611 91.1254 31.6638 90.3972 31.8492V31.8955C91.2619 32.081 91.7171 32.5446 91.7171 33.3326C91.7171 34.5843 90.6703 35.1406 89.3504 35.1406H87.0748L87.1203 28.975ZM98.453 32.081C98.453 30.8293 97.9068 30.0876 97.0876 30.0876C96.2684 30.0876 95.7222 30.8293 95.7222 32.081C95.7222 33.3326 96.2684 34.1207 97.0876 34.1207C97.9523 34.1207 98.453 33.3326 98.453 32.081ZM94.3113 32.081C94.3113 30.0412 95.4491 28.8823 97.0876 28.8823C98.726 28.8823 99.8639 30.0412 99.8639 32.081C99.8639 34.1207 98.726 35.326 97.0876 35.326C95.4491 35.326 94.3113 34.0744 94.3113 32.081ZM102.868 28.975H104.233V32.4518C104.233 33.6571 104.597 34.0744 105.28 34.0744C105.963 34.0744 106.372 33.6571 106.372 32.4518V28.975H107.692V32.3128C107.692 34.3989 106.873 35.326 105.28 35.326C103.687 35.326 102.868 34.3989 102.868 32.3128V28.975ZM112.152 30.1803H110.468V29.0214H115.202V30.1803H113.518V35.1869H112.152V30.1803ZM117.978 35.1869V28.975H119.343V35.1869C119.389 35.1869 117.978 35.1869 117.978 35.1869ZM125.123 34.1207C125.943 34.1207 126.489 33.3326 126.489 32.081C126.489 30.8293 125.988 30.0876 125.123 30.0876C124.304 30.0876 123.758 30.8293 123.758 32.081C123.758 33.3326 124.304 34.1207 125.123 34.1207ZM128.218 36.7167C127.991 36.8095 127.627 36.9022 127.126 36.9022C125.852 36.9022 124.941 36.2068 124.486 35.2333C123.166 34.9552 122.347 33.7962 122.347 32.0346C122.347 29.9949 123.485 28.8359 125.123 28.8359C126.762 28.8359 127.9 29.9949 127.9 32.0346C127.9 33.7035 127.126 34.8161 125.943 35.1869C126.216 35.6042 126.762 35.7896 127.263 35.7896C127.536 35.7896 127.763 35.7432 127.945 35.6969L128.218 36.7167ZM130.904 28.975H132.269V32.4518C132.269 33.6571 132.633 34.0744 133.316 34.0744C133.998 34.0744 134.408 33.6571 134.408 32.4518V28.975H135.728V32.3128C135.728 34.3989 134.909 35.326 133.316 35.326C131.723 35.326 130.904 34.3989 130.904 32.3128V28.975ZM139.005 28.975H142.828V30.1803H140.37V31.432H142.464V32.5909H140.37V34.028H142.919V35.1869H139.005V28.975Z" fill="white"/>
<path fill-rule="evenodd" clip-rule="evenodd" d="M67.9148 18.7785C69.7808 18.7785 70.6455 18.0832 70.6455 16.7389C70.6455 15.4411 69.7808 14.8848 67.9148 14.8848H66.0032V18.7785H67.9148ZM67.5962 11.5938C69.1436 11.5938 69.8718 10.8058 69.8718 9.73964C69.8718 8.67352 69.1436 8.20999 67.5962 8.20999H66.0032V11.5938H67.5962ZM61.2699 4.54811H67.6872C71.4192 4.54811 74.4686 5.47517 74.4686 8.99799C74.4686 10.5276 73.6039 12.2891 71.5103 12.8453V12.938C74.059 13.4479 75.2878 14.7458 75.2878 17.1098C75.2878 20.7717 72.1019 22.394 68.2333 22.394H61.2699V4.54811ZM146.379 6.30952H140.917V4.40905H154.162V6.30952H148.7V22.394H146.424L146.379 6.30952ZM165.267 15.0702L164.402 12.3354C163.765 10.3422 163.173 8.3027 162.627 6.26317H162.536C161.99 8.3027 161.398 10.3422 160.761 12.3354L159.896 15.0702H165.267ZM165.858 16.9244H159.259L157.529 22.394H155.208L161.307 4.36269H163.901L170 22.394H167.588L165.858 16.9244ZM79.566 22.394V4.54811H84.2994V22.394H79.566ZM97.9987 4.22363C100.547 4.22363 102.459 5.33611 103.733 6.58764L101.139 9.50788C100.274 8.71987 99.5006 8.3027 98.0442 8.3027C95.6321 8.3027 93.8115 10.2032 93.8115 13.4479C93.8115 16.7853 95.3135 18.6858 98.4994 18.6858C99 18.6858 99.5462 18.5931 99.8647 18.3613V15.9046H97.225V12.0573H104.052V20.5862C102.732 21.6987 100.411 22.7648 97.9077 22.7648C92.9923 22.7648 88.9872 19.7519 88.9872 13.6333C88.9872 7.65376 93.0833 4.22363 97.9987 4.22363ZM113.746 20.5399C117.979 20.5399 120.072 17.8978 120.072 13.3088C120.072 8.76623 117.979 6.26317 113.746 6.26317H111.698V20.5399H113.746ZM109.377 4.40905H113.883C119.435 4.40905 122.394 7.6074 122.394 13.3552C122.394 19.1029 119.435 22.4404 113.974 22.4404H109.377V4.40905ZM135.092 15.0702L134.227 12.3354C133.59 10.3422 132.998 8.3027 132.452 6.26317H132.361C131.815 8.3027 131.223 10.3422 130.586 12.3354L129.721 15.0702H135.092ZM135.683 16.9244H129.129L127.4 22.394H125.079L131.178 4.36269H133.772L139.871 22.394H137.413L135.683 16.9244ZM60.9513 33.1943V31.9891H83.2071V33.1943H60.9513ZM147.744 33.1943V31.9891H170V33.1943H147.744Z" fill="white"/>
</g>
</svg>
