<svg width="646" height="469" viewBox="0 0 646 469" fill="none" xmlns="http://www.w3.org/2000/svg">
<mask id="mask0_15_235" style="mask-type:alpha" maskUnits="userSpaceOnUse" x="0" y="0" width="646" height="469">
<path fill-rule="evenodd" clip-rule="evenodd" d="M0 0H646V469H620H214H166H24H0V0Z" fill="#D9D9D9"/>
</mask>
<g mask="url(#mask0_15_235)">
<path opacity="0.08" d="M148.632 35.6305C82.4952 44.144 26.5376 102.608 17.1709 173.366C8.50041 238.83 48.8204 309.328 110.337 336.324C161.416 358.72 216.018 352.878 257.773 321.75C280.662 344.784 303.551 367.839 326.214 391.096C365.991 431.922 413.288 448.582 469.367 441.365C535.498 432.862 591.461 374.393 600.828 303.624C609.504 238.166 569.183 167.662 507.667 140.677C456.588 118.28 401.986 124.112 360.226 155.245C337.337 132.216 314.447 109.156 291.785 85.8938C258.005 51.2342 218.819 34 173.43 34C165.361 34 157.096 34.5417 148.632 35.6305ZM98.9185 195.763C98.9185 165.118 117.404 138.823 143.758 127.596C170.962 113.044 198.925 118.121 222.553 140.921C273.563 190.154 322.158 241.926 372.894 291.435C372.499 288.286 372.214 285.11 372.214 281.854C372.214 246.201 397.239 216.46 430.545 209.454C432.693 209.015 434.859 208.672 437.037 208.424C437.375 208.387 437.702 208.312 438.023 208.281C440.502 208.015 443.023 207.888 445.571 207.888H445.602C462.644 207.844 479.161 213.82 492.277 224.777C500.643 231.711 507.377 240.426 511.996 250.296C516.615 260.165 519.004 270.943 518.99 281.854L518.985 281.87C518.985 285.503 518.637 289.029 518.141 292.513C518.031 293.262 517.93 294.006 517.804 294.744C517.208 298.143 516.433 301.462 515.388 304.675C515.251 305.1 515.082 305.509 514.929 305.939C513.892 308.972 512.659 311.933 511.238 314.803C511.042 315.196 510.868 315.59 510.673 315.972C509.075 319.058 507.261 322.005 505.273 324.809C505.03 325.149 504.777 325.468 504.534 325.803C500.296 331.567 495.251 336.684 489.556 340.992L489.05 341.364C483.062 345.825 476.432 349.335 469.388 351.773H469.383L469.262 351.821C468.623 352.044 467.996 352.315 467.342 352.512C442.364 362.82 417.091 356.946 395.451 336.069C344.367 286.767 295.698 234.921 244.883 185.348C245.357 188.763 245.695 192.22 245.695 195.763C245.695 236.615 212.838 269.74 172.301 269.74C131.771 269.74 98.9185 236.615 98.9185 195.763Z" fill="url(#paint0_radial_15_235)"/>
</g>
<defs>
<radialGradient id="paint0_radial_15_235" cx="0" cy="0" r="1" gradientUnits="userSpaceOnUse" gradientTransform="translate(494.27 338.677) rotate(-153.142) scale(887.903 852.689)">
<stop stop-color="#5B68D9"/>
<stop offset="1" stop-color="#D5D8F5" stop-opacity="0.35"/>
</radialGradient>
</defs>
</svg>
