<svg xmlns="http://www.w3.org/2000/svg" width="30" height="22"><g fill="none" fill-rule="evenodd"><path d="M0-4h30v30H0z"/><path fill="#fff" d="M29.7 4.908s-.293-2.1-1.192-3.024C27.367.67 26.088.664 25.502.594 21.304.286 15.007.286 15.007.286h-.014s-6.297 0-10.495.308c-.587.07-1.865.076-3.006 1.29C.592 2.81.3 4.908.3 4.908S0 7.374 0 9.838v2.313c0 2.465.3 4.93.3 4.93s.293 2.1 1.192 3.024c1.141 1.214 2.64 1.176 3.308 1.303 2.4.234 10.2.306 10.2.306s6.304-.01 10.502-.318c.586-.071 1.865-.077 3.006-1.29.899-.925 1.192-3.024 1.192-3.024s.3-2.465.3-4.931V9.839c0-2.465-.3-4.931-.3-4.931zM11.903 14.952l-.001-8.56 8.105 4.294-8.105 4.266z"/></g></svg>